<?xml version="1.0" encoding="UTF-8" standalone="no"?>
<!-- Generator: Adobe Illustrator 22.0.1, SVG Export Plug-In . SVG Version: 6.00 Build 0)  -->

<svg
   version="1.1"
   x="0px"
   y="0px"
   viewBox="0 0 668.33502 249.99999"
   xml:space="preserve"
   id="svg22"
   width="668.33502"
   height="250"
   xmlns="http://www.w3.org/2000/svg"
   xmlns:svg="http://www.w3.org/2000/svg"><defs
   id="defs22" />
<style
   type="text/css"
   id="style1">
	.st0{fill:none;}
	.st1{fill:#5A5A5A;}
	.st2{fill:#0068A2;}
</style>
<g
   id="Protection_Zone">
	<rect
   y="124.8"
   class="st0"
   width="40.799999"
   height="40.799999"
   id="rect1"
   x="0" />
	<rect
   x="262.20001"
   y="124.8"
   class="st0"
   width="40.799999"
   height="40.799999"
   id="rect2" />
	<rect
   x="262.20001"
   y="0.1"
   class="st0"
   width="40.799999"
   height="40.799999"
   id="rect3" />
	<rect
   y="0.1"
   class="st0"
   width="40.799999"
   height="40.799999"
   id="rect4"
   x="0" />
</g>
<g
   id="cesnet"
   transform="matrix(2.9797378,0,0,2.9797378,-112.63409,-122.16925)">
	<g
   id="g16">
		<g
   id="g9">
			<path
   class="st1"
   d="m 262.1,58.8 v -8 h -9.5 V 41 h -9.7 v 9.8 h -6.7 v 8 h 6.7 v 17.6 c 0,1.9 0.2,3.6 0.5,5.2 0.3,1.6 1,3.1 1.9,4.4 0.9,1.3 2.2,2.3 3.8,3 1.6,0.7 3.7,1.1 6.3,1.1 1.1,0 2.2,-0.1 3.4,-0.3 1.2,-0.2 2.2,-0.4 3,-0.8 h 0.1 l -0.3,-7.8 -0.2,0.1 c -0.6,0.3 -1.2,0.5 -1.9,0.6 -0.7,0.1 -1.4,0.2 -2,0.2 -2,0 -3.4,-0.5 -3.9,-1.6 -0.6,-1.1 -0.9,-2.5 -0.9,-4.1 V 58.8 Z"
   id="path4" />
			<path
   class="st1"
   d="m 84,66 c 0.2,-2.5 1.3,-4.7 3.2,-6.3 1.9,-1.7 4.3,-2.5 7.1,-2.5 1.5,0 2.8,0.2 3.9,0.7 1.1,0.5 2,1.2 2.8,2 0.7,0.8 1.3,1.8 1.6,2.9 0.3,1 0.5,2.1 0.5,3.3 H 84 Z M 107.7,54.9 C 106,53.2 104.1,51.8 101.8,51 99.5,50.1 97,49.7 94.4,49.7 c -2.9,0 -5.6,0.5 -8,1.5 -2.5,1 -4.6,2.4 -6.4,4.2 -1.8,1.8 -3.2,4 -4.3,6.5 -1,2.5 -1.6,5.4 -1.6,8.4 0,3.1 0.5,6 1.6,8.4 1,2.5 2.5,4.6 4.3,6.3 1.8,1.7 4,3 6.5,4 2.5,0.9 5.3,1.4 8.2,1.4 7.2,0 12.7,-2.6 16.5,-7.7 l 0.1,-0.1 -6.6,-5.3 -0.1,0.2 c -1,1.5 -2.4,2.7 -4,3.6 C 99,82 97,82.4 94.7,82.4 93.4,82.4 92,82.2 90.8,81.7 89.6,81.2 88.4,80.6 87.4,79.8 86.4,79 85.6,78 85,76.9 84.4,75.8 84.1,74.7 84,73.4 h 28.9 v -0.2 c 0.1,-0.4 0.1,-0.9 0.1,-1.3 v -1.3 c 0,-3.4 -0.5,-6.5 -1.4,-9.1 -0.9,-2.7 -2.2,-4.8 -3.9,-6.6"
   id="path5" />
			<path
   class="st1"
   d="m 50.6,61.8 c 0.9,-1.1 1.9,-2.1 3.2,-2.8 1.3,-0.7 2.8,-1.1 4.5,-1.1 1.5,0 3,0.4 4.4,1.1 1.4,0.7 2.5,1.6 3.3,2.6 l 0.1,0.2 6.7,-5.8 0.1,-0.1 -0.1,-0.1 c -1.5,-1.9 -3.7,-3.4 -6.3,-4.4 -2.6,-1.1 -5.4,-1.6 -8.2,-1.6 -2.8,0 -5.5,0.5 -8,1.4 -2.5,1 -4.7,2.3 -6.5,4.1 -1.9,1.8 -3.4,3.9 -4.4,6.4 -1.1,2.5 -1.6,5.3 -1.6,8.4 0,3.2 0.6,6.1 1.6,8.6 1.1,2.5 2.6,4.6 4.5,6.4 1.9,1.8 4.1,3.1 6.6,4 2.5,0.9 5.2,1.4 8,1.4 2.9,0 5.6,-0.5 8,-1.4 2.5,-0.9 4.5,-2.3 6.1,-4 l 0.1,-0.1 -6.1,-6.2 -0.1,-0.1 -0.1,0.2 c -0.9,1.1 -2.1,1.9 -3.5,2.5 -1.5,0.6 -2.9,0.9 -4.4,0.9 -1.8,0 -3.3,-0.4 -4.6,-1 C 52.6,80.6 51.5,79.7 50.6,78.5 49.7,77.4 49,76.1 48.6,74.6 48.3,72.9 48,71.5 48,70 c 0,-1.5 0.2,-2.9 0.6,-4.4 0.5,-1.4 1.1,-2.7 2,-3.8"
   id="path6" />
			<path
   class="st1"
   d="m 186,54.5 c -1.1,-1.4 -2.6,-2.6 -4.4,-3.5 -1.8,-0.9 -4,-1.3 -6.5,-1.3 -2.9,0 -5.4,0.7 -7.5,2.2 -2,1.4 -3.4,3 -4.3,4.7 v -5.8 h -9.4 v 38.4 h 9.9 V 68.1 c 0,-1.2 0.2,-2.5 0.5,-3.7 0.4,-1.2 0.9,-2.3 1.6,-3.2 0.7,-0.9 1.6,-1.7 2.7,-2.3 1.1,-0.6 2.4,-0.9 3.9,-0.9 1.5,0 2.7,0.3 3.6,0.9 0.9,0.6 1.6,1.4 2.1,2.4 0.5,1 0.9,2 1,3.2 0.2,1.2 0.2,2.4 0.2,3.5 v 21.3 h 9.9 v -24 c 0,-2 -0.3,-3.9 -0.8,-5.8 -0.5,-1.9 -1.4,-3.5 -2.5,-5"
   id="path7" />
			<path
   class="st1"
   d="m 129.7,58.1 c 1.2,-0.6 2.6,-0.9 4.1,-0.9 1.7,0 3.3,0.4 4.8,1.2 1.5,0.8 2.6,1.8 3.4,2.8 l 0.1,0.2 6.5,-5.7 -0.1,-0.1 c -1.5,-2 -3.7,-3.5 -6.3,-4.4 -2.6,-1 -5.4,-1.4 -8.1,-1.4 -1.9,0 -3.8,0.2 -5.6,0.7 -1.8,0.5 -3.5,1.2 -4.9,2.2 -1.4,1 -2.6,2.3 -3.5,3.8 -0.9,1.6 -1.3,3.4 -1.3,5.6 0,1.8 0.3,3.4 1,4.6 0.6,1.2 1.5,2.3 2.6,3.1 1.1,0.8 2.3,1.5 3.7,2 1.3,0.5 2.8,0.9 4.2,1.2 2.9,0.7 5.1,1.4 6.5,2.1 1.4,0.7 2.1,1.7 2.1,3.2 0,0.8 -0.2,1.5 -0.5,2 -0.4,0.6 -0.8,1 -1.4,1.3 -0.6,0.3 -1.2,0.6 -1.9,0.7 -0.7,0.2 -1.4,0.2 -2.1,0.2 -2,0 -3.9,-0.4 -5.6,-1.3 -1.7,-0.9 -3,-2 -4.1,-3.4 l -0.1,-0.2 -6.5,6.1 0.1,0.1 c 1.9,2 4.2,3.6 7,4.7 2.8,1.1 5.7,1.6 8.7,1.6 2.1,0 4.1,-0.2 6,-0.7 1.9,-0.5 3.7,-1.2 5.1,-2.2 1.5,-1 2.7,-2.4 3.5,-4 0.9,-1.6 1.3,-3.6 1.3,-6 0,-1.9 -0.4,-3.5 -1.1,-4.8 -0.7,-1.3 -1.7,-2.4 -2.9,-3.3 -1.2,-0.9 -2.5,-1.6 -4,-2.1 -1.5,-0.5 -2.9,-1 -4.3,-1.3 -2.7,-0.6 -4.7,-1.3 -6.1,-1.9 -1.3,-0.6 -2,-1.6 -2,-3 -0.2,-1.1 0.4,-2.1 1.7,-2.7"
   id="path8" />
			<path
   class="st1"
   d="m 204.6,66 c 0.2,-2.5 1.3,-4.7 3.2,-6.3 1.9,-1.7 4.3,-2.5 7.1,-2.5 1.5,0 2.8,0.2 3.9,0.7 1.1,0.5 2,1.2 2.8,2 0.7,0.8 1.3,1.8 1.6,2.9 0.3,1 0.5,2.1 0.5,3.3 h -19.1 z m 23.7,-11.1 c -1.7,-1.7 -3.6,-3.1 -5.9,-3.9 -2.3,-0.9 -4.8,-1.3 -7.4,-1.3 -2.9,0 -5.6,0.5 -8,1.5 -2.5,1 -4.6,2.4 -6.4,4.2 -1.8,1.8 -3.2,4 -4.3,6.5 -1,2.5 -1.6,5.4 -1.6,8.4 0,3.1 0.5,6 1.6,8.4 1,2.5 2.5,4.6 4.3,6.3 1.8,1.7 4,3 6.5,4 2.5,0.9 5.3,1.4 8.2,1.4 7.2,0 12.7,-2.6 16.5,-7.7 l 0.1,-0.1 -6.6,-5.3 -0.1,0.2 c -1,1.5 -2.4,2.7 -4,3.6 -1.6,0.9 -3.6,1.3 -5.9,1.3 -1.3,0 -2.7,-0.2 -3.9,-0.7 -1.2,-0.5 -2.4,-1.1 -3.4,-1.9 -1,-0.8 -1.8,-1.8 -2.4,-2.9 -0.6,-1.1 -0.9,-2.2 -1,-3.5 h 28.9 v -0.2 c 0.1,-0.4 0.1,-0.9 0.1,-1.3 v -1.3 c 0,-3.4 -0.5,-6.5 -1.4,-9.1 -0.9,-2.7 -2.2,-4.8 -3.9,-6.6"
   id="path9" />
		</g>
		<g
   id="g15">
			<polygon
   class="st2"
   points="146,105.1 146,115 136.1,115 136.1,105.1 "
   id="polygon9" />
			<polygon
   class="st2"
   points="130.1,105.1 130.1,115 120.2,115 120.2,105.1 "
   id="polygon10" />
			<polygon
   class="st2"
   points="114.2,115 104.3,115 104.3,124.9 114.2,124.9 "
   id="polygon11" />
			<polygon
   class="st2"
   points="98.3,115 88.5,115 88.5,124.9 98.3,124.9 "
   id="polygon12" />
			<polygon
   class="st2"
   points="82.5,115 72.6,115 72.6,124.9 82.5,124.9 "
   id="polygon13" />
			<polygon
   class="st2"
   points="50.7,105.1 50.7,115 40.8,115 40.8,105.1 "
   id="polygon14" />
			<polygon
   class="st2"
   points="66.6,105.1 66.6,115 56.7,115 56.7,105.1 "
   id="polygon15" />
		</g>
	</g>
	<g
   id="g17">
	</g>
	<g
   id="g18">
	</g>
	<g
   id="g19">
	</g>
	<g
   id="g20">
	</g>
	<g
   id="g21">
	</g>
	<g
   id="g22">
	</g>
</g>
</svg>
