<?xml version="1.0" encoding="UTF-8"?> <!-- Generator: Adobe Illustrator 26.0.3, SVG Export Plug-In . SVG Version: 6.00 Build 0) --> <svg xmlns="http://www.w3.org/2000/svg" xmlns:xlink="http://www.w3.org/1999/xlink" version="1.1" id="Layer_1" x="0px" y="0px" viewBox="0 0 425.2 322.42" style="enable-background:new 0 0 425.2 322.42;" xml:space="preserve"> <style type="text/css"> .st0{fill-rule:evenodd;clip-rule:evenodd;fill:#FFFFFF;} </style> <g> <g> <path class="st0" d="M223.01,15.34C224.2,6.46,231.79,0,240.52,0c0.78,0,1.57,0.05,2.36,0.15c9.68,1.3,16.49,10.19,15.19,19.87 c-1.29,9.68-10.2,16.47-19.87,15.18C228.54,33.92,221.73,25.02,223.01,15.34z"></path> </g> <g> <path class="st0" d="M179.75,0.76c0.91-0.14,1.8-0.21,2.7-0.21c8.58,0,16.11,6.26,17.45,15c1.48,9.66-5.14,18.68-14.8,20.16 c-9.65,1.48-18.67-5.14-20.16-14.79C163.47,11.27,170.1,2.24,179.75,0.76z"></path> </g> <g> <path class="st0" d="M119.29,19.25c2.43-1.15,5.01-1.7,7.54-1.7c6.63,0,12.97,3.74,15.99,10.13c4.17,8.83,0.4,19.37-8.43,23.54 c-8.83,4.17-19.37,0.4-23.54-8.43C106.69,33.96,110.46,23.41,119.29,19.25z"></path> </g> <g> <path class="st0" d="M332.11,53.24c3.49-4.08,8.44-6.17,13.42-6.17c4.08,0,8.17,1.4,11.51,4.26c7.39,6.36,8.26,17.52,1.89,24.92 c-6.35,7.41-17.52,8.26-24.93,1.91C326.59,71.81,325.73,60.64,332.11,53.24z"></path> </g> <g> <path class="st0" d="M66.61,54.15c3.38-3,7.58-4.49,11.76-4.49c4.86,0,9.71,2,13.2,5.91c6.5,7.29,5.87,18.46-1.42,24.96 c-7.28,6.5-18.46,5.86-24.96-1.43C58.69,71.82,59.32,60.65,66.61,54.15L66.61,54.15z"></path> </g> <g> <path class="st0" d="M374.17,93.67c2.97-1.92,6.31-2.85,9.61-2.85c5.79,0,11.47,2.84,14.86,8.06c5.3,8.2,2.98,19.14-5.21,24.46 c-8.2,5.31-19.14,2.98-24.46-5.21C363.66,109.93,365.98,98.99,374.17,93.67z"></path> </g> <g> <path class="st0" d="M25.94,102.5c3.35-5.39,9.13-8.36,15.03-8.36c3.18,0,6.41,0.87,9.32,2.67c8.29,5.16,10.83,16.06,5.67,24.35 c-5.16,8.3-16.05,10.84-24.35,5.69C23.33,121.69,20.79,110.78,25.94,102.5L25.94,102.5z"></path> </g> <g> <path class="st0" d="M0.63,160.42c2.15-7.86,9.27-13.01,17.04-13.01c1.54,0,3.12,0.2,4.68,0.63c9.42,2.58,14.95,12.31,12.38,21.73 c-2.58,9.4-12.3,14.96-21.72,12.36C3.59,179.55-1.95,169.83,0.63,160.42z"></path> </g> <g> <path class="st0" d="M220.23,52.29c0.84-6.29,6.23-10.87,12.4-10.87c0.56,0,1.11,0.03,1.69,0.11c6.85,0.92,11.68,7.22,10.75,14.08 c-0.91,6.86-7.21,11.68-14.06,10.76C224.13,65.45,219.31,59.15,220.23,52.29z"></path> </g> <g> <path class="st0" d="M189.56,41.96c0.64-0.1,1.28-0.14,1.91-0.14c6.08,0,11.42,4.43,12.37,10.63c1.06,6.85-3.64,13.24-10.49,14.29 c-6.84,1.05-13.24-3.65-14.28-10.49C178.02,49.4,182.72,43.01,189.56,41.96z"></path> </g> <g> <path class="st0" d="M260.84,60.09c2.08-4.65,6.66-7.4,11.45-7.4c1.72,0,3.45,0.35,5.12,1.1c6.31,2.84,9.14,10.26,6.3,16.57 c-2.82,6.31-10.24,9.13-16.56,6.3C260.83,73.82,258,66.41,260.84,60.09z"></path> </g> <g> <path class="st0" d="M146.71,55.06c1.72-0.81,3.55-1.19,5.34-1.19c4.7,0,9.2,2.65,11.34,7.18c2.96,6.26,0.28,13.72-5.98,16.68 c-6.26,2.96-13.72,0.29-16.68-5.97C137.77,65.49,140.45,58.02,146.71,55.06C146.71,55.06,146.71,55.06,146.71,55.06z"></path> </g> <g> <path class="st0" d="M297.56,79.15c2.47-2.89,5.98-4.37,9.5-4.37c2.89,0,5.8,0.99,8.16,3.02c5.25,4.5,5.85,12.41,1.35,17.67 c-4.51,5.25-12.42,5.86-17.67,1.34C293.65,92.32,293.05,84.41,297.56,79.15z"></path> </g> <g> <path class="st0" d="M109.37,79.8c2.39-2.13,5.37-3.18,8.34-3.18c3.45,0,6.88,1.42,9.35,4.19c4.61,5.16,4.16,13.08-1.01,17.69 c-5.17,4.61-13.09,4.16-17.69-1C103.75,92.33,104.2,84.41,109.37,79.8z"></path> </g> <g> <path class="st0" d="M327.36,107.81c2.1-1.36,4.48-2.02,6.82-2.02c4.11,0,8.11,2.01,10.52,5.71c3.77,5.81,2.11,13.57-3.69,17.33 c-5.8,3.77-13.57,2.12-17.33-3.69C319.9,119.34,321.55,111.58,327.36,107.81z"></path> </g> <g> <path class="st0" d="M80.53,114.06c2.38-3.81,6.47-5.91,10.66-5.91c2.26,0,4.54,0.61,6.6,1.89c5.89,3.65,7.69,11.39,4.03,17.26 v-0.01c-3.66,5.88-11.38,7.68-17.26,4.03C78.69,127.67,76.89,119.95,80.53,114.06z"></path> </g> <g> <path class="st0" d="M62.6,155.12c1.52-5.57,6.58-9.23,12.08-9.23c1.1,0,2.22,0.15,3.32,0.45c6.68,1.83,10.61,8.72,8.77,15.4 c-1.82,6.67-8.72,10.6-15.39,8.76C64.7,168.69,60.77,161.79,62.6,155.12z"></path> </g> <g> <path class="st0" d="M217.96,82.44c0.57-4.19,4.15-7.25,8.28-7.25c0.37,0,0.74,0.02,1.13,0.08c4.57,0.61,7.79,4.81,7.17,9.38 c-0.6,4.58-4.82,7.78-9.4,7.17C220.56,91.21,217.36,87.01,217.96,82.44z"></path> </g> <g> <path class="st0" d="M197.51,75.55c0.43-0.06,0.85-0.09,1.27-0.09c4.06,0,7.62,2.96,8.25,7.09c0.7,4.56-2.43,8.82-6.99,9.52h0 c-4.56,0.7-8.82-2.43-9.53-6.99C189.82,80.51,192.95,76.25,197.51,75.55z"></path> </g> <g> <path class="st0" d="M245.04,87.64c1.4-3.1,4.44-4.94,7.63-4.94c1.13,0,2.3,0.24,3.42,0.74v0v0v0c4.21,1.89,6.09,6.83,4.2,11.04 c-1.9,4.21-6.83,6.09-11.05,4.2C245.03,96.8,243.16,91.85,245.04,87.64z"></path> </g> <g> <path class="st0" d="M168.95,84.29c1.15-0.55,2.36-0.8,3.56-0.8c3.13,0,6.13,1.78,7.56,4.79c1.97,4.17,0.19,9.15-3.99,11.12 c-4.17,1.97-9.15,0.19-11.13-3.98C162.99,91.24,164.77,86.26,168.95,84.29L168.95,84.29z"></path> </g> <g> <path class="st0" d="M144.05,100.78c1.59-1.42,3.58-2.12,5.56-2.12c2.3,0,4.59,0.95,6.24,2.8c3.06,3.44,2.77,8.73-0.68,11.79 c-3.44,3.07-8.73,2.78-11.79-0.67C140.31,109.14,140.6,103.85,144.05,100.78z"></path> </g> <g> <path class="st0" d="M289.4,119.46c1.39-0.91,2.98-1.34,4.54-1.34c2.73,0,5.42,1.34,7.02,3.8c2.51,3.87,1.4,9.05-2.46,11.56 c-3.86,2.51-9.04,1.4-11.56-2.46C284.43,127.14,285.54,121.97,289.4,119.46z"></path> </g> <g> <path class="st0" d="M303.07,143.4c0.78-0.24,1.59-0.34,2.37-0.34c3.6,0,6.93,2.35,8,6c1.3,4.42-1.23,9.07-5.66,10.37 c-4.41,1.31-9.07-1.22-10.38-5.65C296.11,149.36,298.64,144.71,303.07,143.4z"></path> </g> <g> <path class="st0" d="M112.87,151c1.02-3.71,4.38-6.16,8.06-6.16c0.73,0,1.48,0.1,2.21,0.31c4.46,1.22,7.07,5.81,5.85,10.26 c-1.21,4.46-5.82,7.07-10.26,5.85C114.27,160.04,111.65,155.45,112.87,151z"></path> </g> <g> <path class="st0" d="M216.31,104.34c0.36-2.66,2.65-4.61,5.27-4.61c0.22,0,0.46,0.02,0.71,0.05c2.91,0.38,4.94,3.06,4.57,5.97 c-0.39,2.91-3.08,4.95-5.98,4.57C217.96,109.92,215.92,107.24,216.31,104.34z"></path> </g> <g> <path class="st0" d="M203.31,99.95c0.27-0.04,0.54-0.06,0.82-0.06c2.57,0,4.84,1.88,5.24,4.51c0.44,2.9-1.54,5.61-4.44,6.05 c-2.9,0.45-5.61-1.55-6.06-4.45C198.41,103.12,200.41,100.41,203.31,99.95z"></path> </g> <g> <path class="st0" d="M233.54,107.64c0.89-1.97,2.81-3.14,4.84-3.14c0.73,0,1.48,0.15,2.19,0.48c2.67,1.19,3.87,4.34,2.67,7.02 c-1.2,2.67-4.35,3.87-7.02,2.67h0C233.53,113.47,232.34,110.32,233.54,107.64z"></path> </g> <g> <path class="st0" d="M169.3,116c1.01-0.91,2.27-1.35,3.53-1.35c1.46,0,2.92,0.6,3.96,1.78c1.96,2.19,1.77,5.54-0.42,7.5 c-2.18,1.95-5.54,1.76-7.5-0.43C166.93,121.31,167.11,117.95,169.3,116z"></path> </g> <g> <path class="st0" d="M261.75,127.88c0.89-0.58,1.89-0.85,2.88-0.85c1.75,0,3.45,0.85,4.46,2.42c1.6,2.46,0.9,5.76-1.56,7.35 c-2.46,1.6-5.74,0.9-7.34-1.57C258.58,132.77,259.29,129.47,261.75,127.88z"></path> </g> <g> <path class="st0" d="M157.08,130.53c1-1.61,2.74-2.51,4.52-2.51c0.96,0,1.93,0.27,2.8,0.8c2.49,1.56,3.25,4.83,1.71,7.32 c-1.55,2.49-4.83,3.26-7.32,1.72C156.3,136.3,155.53,133.02,157.08,130.53z"></path> </g> <g> <path class="st0" d="M270.44,143.11c0.51-0.15,1.01-0.22,1.51-0.22c2.3,0,4.41,1.5,5.09,3.81c0.83,2.82-0.78,5.77-3.58,6.6 c-2.82,0.83-5.77-0.78-6.6-3.59C266.02,146.89,267.63,143.94,270.44,143.11z"></path> </g> <g> <path class="st0" d="M149.48,147.94c0.65-2.36,2.78-3.92,5.12-3.92c0.46,0,0.93,0.07,1.4,0.19c2.83,0.78,4.5,3.7,3.72,6.54 c-0.77,2.83-3.7,4.49-6.53,3.72C150.36,153.69,148.7,150.77,149.48,147.94z"></path> </g> <g> <path class="st0" d="M347.88,143.73c1.17-0.35,2.36-0.52,3.54-0.52c5.41,0,10.4,3.54,12.02,9c1.96,6.64-1.83,13.6-8.47,15.56 c-6.64,1.95-13.61-1.84-15.57-8.47C337.45,152.66,341.24,145.68,347.88,143.73z"></path> </g> <rect x="394.61" y="205.52" class="st0" width="29.22" height="116.9"></rect> <path class="st0" d="M40.98,263.96c0-8.06,6.55-14.61,14.62-14.61h88.4c2.06-0.01,3.8-0.8,5.17-2.14c1.34-1.37,2.13-3.11,2.13-5.17 c-0.01-2.07-0.8-3.8-2.13-5.16c-1.37-1.34-3.11-2.13-5.17-2.14H58.52c-8.08,0.01-15.28,3.25-20.59,8.54 c-5.31,5.34-8.54,12.56-8.56,20.68c0.02,8.13,3.25,15.34,8.56,20.68c5.31,5.32,12.51,8.54,20.59,8.54h122.11v29.24H58.52 c-0.01,0-0.01,0-0.02,0c-16.08,0-30.75-6.58-41.26-17.14C6.7,294.74,0.14,280.05,0.15,263.96c-0.01-16.09,6.54-30.78,17.08-41.32 c10.52-10.57,25.2-17.13,41.28-17.13h85.49c10.04-0.01,19.27,4.09,25.83,10.69c6.6,6.57,10.71,15.79,10.71,25.83 c0.01,10.06-4.11,19.28-10.71,25.85c-6.55,6.57-15.77,10.68-25.81,10.68H55.6C47.53,278.57,40.98,272.04,40.98,263.96z"></path> <path class="st0" d="M237.22,263.96c0,8.08,6.53,14.61,14.61,14.61l88.39,0c2.06,0.01,3.81,0.8,5.17,2.14 c1.34,1.38,2.13,3.11,2.13,5.17c0,2.06-0.79,3.8-2.13,5.16c-1.36,1.35-3.12,2.13-5.17,2.14h-85.48c-8.1,0-15.28-3.22-20.6-8.54 c-5.29-5.34-8.53-12.54-8.54-20.68c0-8.12,3.25-15.34,8.54-20.68c5.33-5.3,12.5-8.53,20.6-8.54h122.09v0v-29.22H254.74 c-0.01,0-0.01,0-0.03,0c-16.07,0-30.75,6.57-41.25,17.12c-10.55,10.54-17.1,25.23-17.09,41.32c0,16.09,6.54,30.78,17.09,41.32 c10.51,10.56,25.2,17.15,41.28,17.14h85.48c10.06,0.01,19.28-4.11,25.85-10.71c6.57-6.57,10.69-15.79,10.68-25.83 c0.01-10.04-4.11-19.26-10.68-25.83c-6.57-6.59-15.78-10.7-25.82-10.7h-88.42C243.75,249.35,237.22,255.9,237.22,263.96z"></path> <path class="st0" d="M425.2,158.54c0,9.77-7.92,17.69-17.69,17.69c-9.76,0-17.67-7.92-17.67-17.69c0-9.76,7.92-17.68,17.67-17.68 C417.28,140.85,425.2,148.77,425.2,158.54z"></path> <g> <path class="st0" d="M314.13,33.58c0,9.77-7.92,17.69-17.69,17.69c-9.76,0-17.67-7.92-17.67-17.69c0-9.76,7.92-17.68,17.67-17.68 C306.21,15.89,314.13,23.81,314.13,33.58z"></path> </g> <path class="st0" d="M284.19,105.78c0-4.61-3.74-8.34-8.34-8.34c-4.61,0-8.34,3.74-8.34,8.34c0,4.61,3.74,8.34,8.34,8.34 C280.46,114.13,284.19,110.39,284.19,105.78z"></path> <path class="st0" d="M140.27,128.03c0-4.61-3.74-8.34-8.34-8.34c-4.61,0-8.34,3.74-8.34,8.34c0,4.61,3.74,8.34,8.34,8.34 C136.53,136.38,140.27,132.64,140.27,128.03z"></path> <path class="st0" d="M247.82,119.19c0-2.94,2.38-5.32,5.32-5.32c2.94,0,5.32,2.38,5.32,5.32c0,2.94-2.38,5.32-5.32,5.32 C250.2,124.5,247.82,122.12,247.82,119.19z"></path> <path class="st0" d="M182.09,110.31c0-2.94,2.38-5.32,5.32-5.32c2.94,0,5.32,2.38,5.32,5.32c0,2.94-2.38,5.32-5.32,5.32 C184.47,115.63,182.09,113.25,182.09,110.31z"></path> </g> </svg> 