<?xml version="1.0" encoding="UTF-8"?><svg id="a" xmlns="http://www.w3.org/2000/svg" viewBox="0 0 90 90"><defs><style>.b{stroke:#ff7f00;}.b,.c{fill:none;stroke-linecap:round;stroke-linejoin:round;stroke-width:3px;}.c{stroke:#0062ab;}</style></defs><rect class="c" x="15.24" y="24.62" width="59.52" height="40.76" rx="2.98" ry="2.98" transform="translate(0 90) rotate(-90)"/><line class="b" x1="34.14" y1="54.4" x2="55.53" y2="54.4"/><line class="b" x1="34.14" y1="64.34" x2="45" y2="64.34"/><g><path class="b" d="M53.35,29.63c.85,1.46,1.34,3.16,1.34,4.97s-.49,3.52-1.34,4.98"/><path class="b" d="M36.33,39.57c-.86-1.46-1.35-3.16-1.35-4.97s.49-3.5,1.35-4.96"/><path class="b" d="M39.87,43.11c1.46,.86,3.15,1.35,4.97,1.35s3.5-.49,4.96-1.35"/><path class="b" d="M39.87,26.1c1.46-.86,3.15-1.35,4.97-1.35s3.5,.49,4.96,1.35"/></g></svg>